Patient5_TMGait_0pt45_1_left_12_GRF.mot
version=1
nRows=78
nColumns=19
inDegrees=no
endheader
time	F1x	F1y	F1z	M1x	M1y	M1z	F2x	F2y	F2z	M2x	M2y	M2z	EC1x	EC1y	EC1z	EC2x	EC2y	EC2z
18.61	-4.6277	54.8035	-4.2035	-19.8577	4.8653	39.196	-50.586	828.4487	-78.3564	330.8786	97.1477	858.1678	-0.0592	0.0182	-0.0073	-0.0462	0.0165	0.9585
18.626	-2.0771	48.4133	-3.1701	-17.3282	3.746	35.5074	-47.8239	860.8437	-70.3375	346.0294	89.2705	886.4707	-0.0592	0.0182	-0.0073	-0.0462	0.0165	0.9585
18.642	-0.70921	39.1614	-2.146	-13.8846	2.4849	29.5202	-44.3938	894.4788	-65.0084	361.3219	83.2492	914.7465	-0.0592	0.0182	-0.0073	-0.0462	0.0165	0.9585
18.658	-0.1599	28.7398	-1.2395	-10.1194	1.3496	22.4295	-40.2057	921.5834	-62.3265	373.4769	78.9656	935.5037	-0.0592	0.0182	-0.0073	-0.0462	0.0165	0.9585
18.674	0.17307	19.0502	-0.56131	-6.675	0.59154	15.6394	-35.164	935.4539	-61.2427	379.7896	75.465	942.4526	-0.0592	0.0182	-0.0073	-0.0462	0.0165	0.9585
18.69	0.4722	11.5071	-0.16489	-4.0204	0.24178	10.2502	-29.0508	932.2962	-60.872	378.7732	71.9332	932.2652	-0.0592	0.0182	-0.0073	-0.0462	0.0165	0.9585
18.706	0.68832	6.5437	0.012988	-2.2884	0.15648	6.6678	-21.55	912.1769	-60.8206	370.4961	67.9696	905.4182	-0.0592	0.0182	-0.0073	-0.0462	0.0165	0.9585
18.722	0.82329	3.8315	0.057822	-1.354	0.207	4.718	-12.4536	879.2799	-60.8939	356.7091	63.3927	866.3515	-0.0592	0.0182	-0.0073	-0.0462	0.0165	0.9585
18.738	0.89272	2.7399	0.039183	-0.98924	0.30349	3.9607	-2.0584	841.018	-61.0754	340.4989	58.3906	822.5821	-0.0592	0.0182	-0.0073	-0.0462	0.0165	0.9585
18.754	0.91682	2.6176	-0.0091048	-0.96504	0.40423	3.909	8.5495	805.538	-61.369	325.2698	53.4832	782.2528	-0.0592	0.0182	-0.0073	-0.0462	0.0165	0.9585
18.77	0.93089	2.8972	-0.03891	-1.0802	0.46773	4.1205	17.7253	778.826	-61.7091	313.5573	49.3437	751.2625	-0.0592	0.0182	-0.0073	-0.0462	0.0165	0.9585
18.786	0.959	3.1299	-0.017816	-1.1688	0.46736	4.2193	23.9495	763.3724	-62.0046	306.4582	46.5533	731.9707	-0.0592	0.0182	-0.0073	-0.0462	0.0165	0.9585
18.802	1.0029	2.9653	0.074017	-1.0988	0.38024	3.8796	26.7571	758.7283	-62.151	303.8484	45.2095	723.7371	-0.0592	0.0182	-0.0073	-0.0462	0.0165	0.9585
18.818	1.0589	2.1008	0.26415	-0.75735	0.16757	2.7626	27.0388	762.9647	-62.1526	304.9623	44.9209	724.354	-0.0592	0.0182	-0.0073	-0.0462	0.0165	0.9585
18.834	1.1017	0.30771	0.5466	-0.063571	-0.1823	0.58015	26.3772	773.7055	-62.0298	308.8076	45.0009	731.159	-0.0592	0.0182	-0.0073	-0.0462	0.0165	0.9585
18.85	1.067	-2.4651	0.89437	0.99698	-0.65751	-2.7476	26.2413	788.3644	-61.7938	314.2749	44.8022	741.4172	-0.0592	0.0182	-0.0073	-0.0462	0.0165	0.9585
18.866	0.87614	-5.9304	1.2179	2.3111	-1.1655	-6.9157	27.5444	804.2728	-61.5568	320.2072	44.0134	752.4928	-0.0592	0.0182	-0.0073	-0.0462	0.0165	0.9585
18.882	0.44686	-9.2116	1.3181	3.5353	-1.4891	-10.9136	30.6315	819.1172	-61.4022	325.6149	42.5577	762.2079	-0.0592	0.0182	-0.0073	-0.0462	0.0165	0.9585
18.898	-0.31278	-10.501	0.88096	3.9688	-1.2676	-12.6223	35.2575	831.3989	-61.2629	329.8827	40.4868	769.2513	-0.0592	0.0182	-0.0073	-0.0462	0.0165	0.9585
18.914	-1.4582	-6.7913	-0.55468	2.4575	0.053756	-8.5091	40.6438	840.3226	-60.9472	332.7224	37.971	773.055	-0.0592	0.0182	-0.0073	-0.0462	0.0165	0.9585
18.93	-2.9282	6.2068	-3.5359	-2.6299	3.1815	6.487	45.6288	845.268	-60.1515	333.941	35.2362	773.2914	-0.0592	0.0182	-0.0073	-0.0462	0.0165	0.9585
18.946	-4.4564	33.6265	-8.5391	-13.2286	8.8277	38.4749	48.9906	845.1424	-58.6424	333.1549	32.5894	769.2536	-0.0592	0.0182	-0.0073	-0.0462	0.0165	0.9585
18.962	-5.4217	80.1442	-15.6901	-31.0701	17.4183	93.0979	49.8945	838.1475	-56.3217	329.6927	30.2796	759.5737	-0.0592	0.0182	-0.0073	-0.0462	0.0165	0.9585
18.978	-4.8281	147.4135	-24.248	-56.6899	28.4587	172.513	48.1677	822.0558	-53.1835	322.7062	28.3354	742.3982	-0.0592	0.0182	-0.0073	-0.0462	0.0165	0.9585
18.994	-2.6865	231.0871	-32.008	-88.28	39.281	271.8411	44.3288	794.6156	-49.3208	311.3429	26.587	715.7122	-0.0592	0.0182	-0.0073	-0.0462	0.0165	0.9585
19.01	-2.5997	319.2142	-34.9299	-121.1291	43.6745	377.3135	39.2955	754.0905	-44.7883	294.9657	24.6967	677.8833	-0.0592	0.0182	-0.0073	-0.0462	0.0165	0.9585
19.026	-8.1251	398.433	-29.7708	-150.1111	36.388	473.6981	33.9341	699.774	-39.5715	273.3437	22.3198	628.1593	-0.0592	0.0182	-0.0073	-0.0462	0.0165	0.9585
19.042	-18.7226	464.0457	-17.862	-173.5566	19.0408	555.6072	28.7479	632.4487	-33.6702	246.7962	19.2862	567.1666	-0.0592	0.0182	-0.0073	-0.0462	0.0165	0.9585
19.058	-32.2811	516.6821	-3.5431	-192.0179	-2.3782	623.3185	23.8274	554.5815	-27.2914	216.2711	15.757	497.1098	-0.0592	0.0182	-0.0073	-0.0462	0.0165	0.9585
19.074	-45.9877	558.2782	9.1542	-206.5707	-21.9749	678.3864	19.0029	470.2953	-20.8648	183.3478	12.1612	421.68	-0.0592	0.0182	-0.0073	-0.0462	0.0165	0.9585
19.09	-57.8578	591.6611	18.1083	-218.4793	-36.477	723.4332	14.0625	385.0364	-14.9324	150.1132	9.0194	345.6936	-0.0592	0.0182	-0.0073	-0.0462	0.0165	0.9585
19.106	-66.7187	619.8102	23.4013	-228.8702	-45.5374	761.3696	8.9916	304.6132	-10.0047	118.7871	6.747	274.2182	-0.0592	0.0182	-0.0073	-0.0462	0.0165	0.9585
19.122	-72.3661	645.49	26.4758	-238.6318	-50.8167	795.096	4.0123	233.8716	-6.4533	91.22	5.5517	211.4112	-0.0592	0.0182	-0.0073	-0.0462	0.0165	0.9585
19.138	-75.4784	670.6201	28.9058	-248.2943	-54.4358	826.8098	-0.57977	175.6803	-4.4059	68.5132	5.4191	159.6844	-0.0592	0.0182	-0.0073	-0.0462	0.0165	0.9585
19.154	-77.0766	696.537	31.6602	-258.2039	-57.9069	858.2236	-4.6467	130.6638	-3.6902	50.9173	6.166	119.4934	-0.0592	0.0182	-0.0073	-0.0462	0.0165	0.9585
19.17	-78.1031	723.8681	34.8843	-268.5136	-61.7265	890.2895	-8.2819	97.6936	-3.9331	38.0099	7.5484	89.8355	-0.0592	0.0182	-0.0073	-0.0462	0.0165	0.9585
19.186	-79.0951	752.1347	38.0755	-279.0448	-65.4772	922.6684	-11.6053	74.5781	-4.7151	28.9553	9.2862	68.8256	-0.0592	0.0182	-0.0073	-0.0462	0.0165	0.9585
19.202	-80.1002	779.6681	40.4617	-289.2261	-68.2852	953.5651	-14.6697	58.8005	-5.6815	22.7815	11.1163	54.3042	-0.0592	0.0182	-0.0073	-0.0462	0.0165	0.9585
19.218	-80.8386	804.0659	41.7058	-298.2131	-69.6698	980.2605	-17.4244	48.043	-6.5803	18.5819	12.8145	44.2834	-0.0592	0.0182	-0.0073	-0.0462	0.0165	0.9585
19.234	-80.9238	823.2014	41.9968	-305.2332	-69.7289	1000.3266	-19.6287	40.3577	-7.2304	15.5892	14.1265	37.0714	-0.0592	0.0182	-0.0073	-0.0462	0.0165	0.9585
19.25	-80.0137	836.0606	41.6732	-309.896	-68.7649	1012.6147	-20.7905	34.1328	-7.4741	13.1694	14.72	31.2327	-0.0592	0.0182	-0.0073	-0.0462	0.0165	0.9585
19.266	-77.8984	842.9226	41.0558	-312.2744	-67.0954	1017.4835	-20.307	28.1156	-7.1731	10.8349	14.2325	25.6412	-0.0592	0.0182	-0.0073	-0.0462	0.0165	0.9585
19.282	-74.5323	845.0073	40.3136	-312.7899	-64.9009	1016.3754	-17.8019	21.6159	-6.2334	8.3219	12.418	19.6685	-0.0592	0.0182	-0.0073	-0.0462	0.0165	0.9585
19.298	-69.9903	843.8456	39.4847	-311.9881	-62.2348	1011.0772	-13.5534	14.783	-4.7365	5.6921	9.4461	13.4307	-0.0592	0.0182	-0.0073	-0.0462	0.0165	0.9585
19.314	-64.4649	840.8171	38.5602	-310.3725	-59.1208	1003.2257	-8.7784	8.6238	-3.0242	3.3318	6.0818	7.8121	-0.0592	0.0182	-0.0073	-0.0462	0.0165	0.9585
19.33	-58.2613	836.9563	37.5085	-308.3413	-55.6072	994.0901	-4.7247	4.0097	-1.5917	1.569	3.2412	3.6257	-0.0592	0.0182	-0.0073	-0.0462	0.0165	0.9585
19.346	-51.7705	833.0991	36.3942	-306.2506	-51.8871	984.7209	-1.8388	1.0414	-0.57777	0.44158	1.2259	0.96008	-0.0592	0.0182	-0.0073	-0.0462	0.0165	0.9585
19.362	-45.411	830.2487	35.3457	-304.5462	-48.2518	976.3369	-0.070725	-0.57623	0.02405	-0.168	0.015044	-0.47868	-0.0592	0.0182	-0.0073	-0.0462	0.0165	0.9585
19.378	-39.563	829.6258	34.3745	-303.759	-44.8736	970.3639	0.81257	-1.2374	0.32452	-0.41687	-0.58604	-1.0508	-0.0592	0.0182	-0.0073	-0.0462	0.0165	0.9585
19.394	-34.4773	832.3357	33.3847	-304.3481	-41.7582	968.0434	1.0952	-1.3159	0.43848	-0.45226	-0.79363	-1.0901	-0.0592	0.0182	-0.0073	-0.0462	0.0165	0.9585
19.41	-30.2641	838.9112	32.3068	-306.522	-38.8815	969.9023	1.0495	-1.1147	0.44065	-0.38768	-0.77386	-0.88422	-0.0592	0.0182	-0.0073	-0.0462	0.0165	0.9585
19.426	-26.9447	849.0724	31.1535	-310.1532	-36.2752	975.5632	0.8646	-0.82711	0.41218	-0.29387	-0.66941	-0.61275	-0.0592	0.0182	-0.0073	-0.0462	0.0165	0.9585
19.442	-24.4827	861.7608	30.0057	-314.8094	-34.0315	983.8156	0.64774	-0.55759	0.37609	-0.2069	-0.54515	-0.35796	-0.0592	0.0182	-0.0073	-0.0462	0.0165	0.9585
19.458	-22.8132	875.3794	28.9505	-319.8611	-32.2491	992.8907	0.46512	-0.35705	0.34092	-0.14011	-0.44101	-0.16376	-0.0592	0.0182	-0.0073	-0.0462	0.0165	0.9585
19.474	-21.8492	888.1034	28.0458	-324.6081	-30.9886	1000.8005	0.33898	-0.23215	0.31857	-0.096724	-0.37582	-0.038279	-0.0592	0.0182	-0.0073	-0.0462	0.0165	0.9585
19.49	-21.404	898.278	27.2724	-328.4371	-30.1881	1005.753	0.25704	-0.15975	0.29965	-0.07268	-0.33009	0.046105	-0.0592	0.0182	-0.0073	-0.0462	0.0165	0.9585
19.506	-21.1677	904.8093	26.532	-330.9589	-29.6435	1006.597	0.21871	-0.12099	0.2886	-0.061728	-0.30392	0.10787	-0.0592	0.0182	-0.0073	-0.0462	0.0165	0.9585
19.522	-20.7725	907.2779	25.7158	-332.0303	-29.1008	1002.9293	0.21701	-0.09997	0.28129	-0.055373	-0.2908	0.16083	-0.0592	0.0182	-0.0073	-0.0462	0.0165	0.9585
19.538	-19.9122	905.8105	24.7959	-331.6878	-28.3927	994.9631	0.23161	-0.082236	0.26794	-0.047484	-0.27646	0.21189	-0.0592	0.0182	-0.0073	-0.0462	0.0165	0.9585
19.554	-18.4647	900.8274	23.8929	-330.0527	-27.5578	983.2456	0.25436	-0.064909	0.2495	-0.037738	-0.26317	0.25187	-0.0592	0.0182	-0.0073	-0.0462	0.0165	0.9585
19.57	-16.5154	892.9405	23.2012	-327.3076	-26.7829	968.5365	0.28931	-0.056703	0.22623	-0.030656	-0.25375	0.24995	-0.0592	0.0182	-0.0073	-0.0462	0.0165	0.9585
19.586	-14.2658	882.9276	22.8451	-323.704	-26.2284	951.7878	0.32138	-0.055012	0.19445	-0.027306	-0.24043	0.2031	-0.0592	0.0182	-0.0073	-0.0462	0.0165	0.9585
19.602	-11.8995	871.6984	22.8477	-319.5639	-25.9622	934.0419	0.33727	-0.056406	0.16418	-0.025251	-0.22505	0.13273	-0.0592	0.0182	-0.0073	-0.0462	0.0165	0.9585
19.618	-9.5761	860.2602	23.1352	-315.2645	-25.956	916.3838	0.34264	-0.06546	0.1358	-0.023302	-0.2044	0.051452	-0.0592	0.0182	-0.0073	-0.0462	0.0165	0.9585
19.634	-7.4376	849.5884	23.5872	-311.1839	-26.1408	899.8091	0.34017	-0.085254	0.12245	-0.020807	-0.19327	-0.013305	-0.0592	0.0182	-0.0073	-0.0462	0.0165	0.9585
19.65	-5.5362	840.5143	24.0992	-307.6563	-26.4433	885.1156	0.33242	-0.11006	0.12596	-0.01653	-0.1949	-0.043915	-0.0592	0.0182	-0.0073	-0.0462	0.0165	0.9585
19.666	-3.841	833.6977	24.6222	-304.9513	-26.8081	872.914	0.32557	-0.12193	0.13207	-0.0074903	-0.19613	-0.043108	-0.0592	0.0182	-0.0073	-0.0462	0.0165	0.9585
19.682	-2.2446	829.5669	25.1461	-303.2457	-27.1836	863.5744	0.32298	-0.093294	0.14061	0.0079324	-0.20339	-0.010817	-0.0592	0.0182	-0.0073	-0.0462	0.0165	0.9585
19.698	-0.6037	828.269	25.6831	-302.6089	-27.526	857.1828	0.32177	-0.020284	0.14251	0.030259	-0.21169	0.057215	-0.0592	0.0182	-0.0073	-0.0462	0.0165	0.9585
19.714	1.2207	829.6412	26.2469	-302.9963	-27.7903	853.4993	0.32066	0.085601	0.1413	0.059239	-0.21837	0.14978	-0.0592	0.0182	-0.0073	-0.0462	0.0165	0.9585
19.73	3.3235	833.2745	26.8613	-304.2674	-27.954	852.0489	0.31536	0.21211	0.14181	0.094616	-0.2162	0.26635	-0.0592	0.0182	-0.0073	-0.0462	0.0165	0.9585
19.746	5.731	838.548	27.5828	-306.1981	-28.0525	852.1674	0.29633	0.34684	0.14661	0.13292	-0.20676	0.4046	-0.0592	0.0182	-0.0073	-0.0462	0.0165	0.9585
19.762	8.3997	844.7377	28.4804	-308.5239	-28.1639	853.1081	0.24959	0.44458	0.15729	0.15904	-0.19684	0.52737	-0.0592	0.0182	-0.0073	-0.0462	0.0165	0.9585
19.778	11.2292	851.1833	29.5966	-310.9942	-28.3716	854.2385	0.16834	0.41092	0.17547	0.13704	-0.18848	0.52064	-0.0592	0.0182	-0.0073	-0.0462	0.0165	0.9585
19.794	14.1492	857.3797	30.9538	-313.4059	-28.7268	855.0935	0.054461	0.13176	0.18844	0.023942	-0.17042	0.24576	-0.0592	0.0182	-0.0073	-0.0462	0.0165	0.9585
19.81	17.1761	863.0303	32.55	-315.6251	-29.2227	855.4011	-0.079367	-0.52162	0.19001	-0.22942	-0.14176	-0.45423	-0.0592	0.0182	-0.0073	-0.0462	0.0165	0.9585
19.826	20.3893	867.9749	34.3727	-317.5684	-29.8157	855.003	-0.1975	-1.6741	0.17679	-0.67215	-0.11007	-1.7299	-0.0592	0.0182	-0.0073	-0.0462	0.0165	0.9585
19.842	23.9108	872.1624	36.394	-319.1977	-30.4343	853.8257	-0.22342	-3.3839	0.15409	-1.33	-0.10575	-3.6547	-0.0592	0.0182	-0.0073	-0.0462	0.0165	0.9585
